# xmcd
#
# Track frame offsets:
#	150
#	13610
#	29157
#	43517
#	62975
#	80137
#	96817
#	115220
#	130132
#	141862
#	158092
#	171440
#	185152
#	202762
#
# Disc length: 2939 seconds
#
# Revision: 1
# Processed by: cddbd v1.5.1PL0 Copyright (c) Steve Scherf et al.
# Submitted via: CDex 1.50Beta5
#
DISCID=c80b790e
DTITLE=N.S.P - N.S.P BEST ALBUM青春のかけら達
DYEAR=1900
DGENRE=
TTITLE0=冬の花火はおもいで花火
TTITLE1=漁り火
TTITLE2=夕暮れ時はさびしそう
TTITLE3=五月雨
TTITLE4=八月の空へ翔べ
TTITLE5=おもいで
TTITLE6=北北東の風
TTITLE7=ゆうやけ
TTITLE8=お茶の一服
TTITLE9=あなたこっちを振り向いて
TTITLE10=春をみつけた
TTITLE11=八十八夜
TTITLE12=雨は似合わない
TTITLE13=歌は世につれ
EXTD=
EXTT0=
EXTT1=
EXTT2=
EXTT3=
EXTT4=
EXTT5=
EXTT6=
EXTT7=
EXTT8=
EXTT9=
EXTT10=
EXTT11=
EXTT12=
EXTT13=
PLAYORDER=
